<svg xmlns="http://www.w3.org/2000/svg" viewBox="0 -960 960 960" width="512" height="512">
  <defs>
    <linearGradient id="lightBgGrad" x1="0%" y1="0%" x2="100%" y2="100%">
      <stop offset="0%" stop-color="#6366f1" />
      <stop offset="100%" stop-color="#4f46e5" />
    </linearGradient>
  </defs>
  <!-- Background squircle -->
  <rect x="0" y="-960" width="960" height="960" rx="200" fill="url(#lightBgGrad)" />
  <!-- Document Icon with subtle shadow and white fill -->
  <path d="M320-240h320v-80H320v80Zm0-160h320v-80H320v80ZM240-80q-33 0-56.5-23.5T160-160v-640q0-33 23.5-56.5T240-880h320l240 240v480q0 33-23.5 56.5T720-80H240Zm280-520v-200H240v640h480v-440H520ZM240-800v200-200 640-640Z" fill="#ffffff" />
</svg>